<mxfile host="app.diagrams.net" agent="Mozilla/5.0 (Windows NT 10.0; Win64; x64) AppleWebKit/537.36 (KHTML, like Gecko) Chrome/131.0.0.0 Safari/537.36" version="26.0.5">
  <diagram name="Page-1" id="yTjay_rjnjRjq1NIrlaL">
    <mxGraphModel dx="1793" dy="883" grid="1" gridSize="10" guides="1" tooltips="1" connect="1" arrows="1" fold="1" page="1" pageScale="1" pageWidth="850" pageHeight="1100" math="0" shadow="0">
      <root>
        <mxCell id="0" />
        <mxCell id="1" parent="0" />
        <mxCell id="sxIpjegynjYcKhdSV3K7-1" value="xor" style="rounded=0;whiteSpace=wrap;html=1;" vertex="1" parent="1">
          <mxGeometry x="160" y="200" width="40" height="40" as="geometry" />
        </mxCell>
        <mxCell id="sxIpjegynjYcKhdSV3K7-2" value="xor" style="rounded=0;whiteSpace=wrap;html=1;" vertex="1" parent="1">
          <mxGeometry x="160" y="280" width="40" height="40" as="geometry" />
        </mxCell>
        <mxCell id="sxIpjegynjYcKhdSV3K7-5" value="" style="endArrow=classic;html=1;rounded=0;entryX=0;entryY=0.25;entryDx=0;entryDy=0;" edge="1" parent="1" target="sxIpjegynjYcKhdSV3K7-1">
          <mxGeometry width="50" height="50" relative="1" as="geometry">
            <mxPoint x="70" y="210" as="sourcePoint" />
            <mxPoint x="110" y="180" as="targetPoint" />
          </mxGeometry>
        </mxCell>
        <mxCell id="sxIpjegynjYcKhdSV3K7-6" value="" style="endArrow=classic;html=1;rounded=0;entryX=0;entryY=0.25;entryDx=0;entryDy=0;" edge="1" parent="1">
          <mxGeometry width="50" height="50" relative="1" as="geometry">
            <mxPoint x="70" y="230" as="sourcePoint" />
            <mxPoint x="160" y="230" as="targetPoint" />
          </mxGeometry>
        </mxCell>
        <mxCell id="sxIpjegynjYcKhdSV3K7-8" value="bit1" style="text;html=1;align=center;verticalAlign=middle;whiteSpace=wrap;rounded=0;" vertex="1" parent="1">
          <mxGeometry x="40" y="180" width="60" height="30" as="geometry" />
        </mxCell>
        <mxCell id="sxIpjegynjYcKhdSV3K7-9" value="bit2" style="text;html=1;align=center;verticalAlign=middle;whiteSpace=wrap;rounded=0;" vertex="1" parent="1">
          <mxGeometry x="40" y="210" width="60" height="30" as="geometry" />
        </mxCell>
        <mxCell id="sxIpjegynjYcKhdSV3K7-10" value="" style="endArrow=classic;html=1;rounded=0;exitX=1;exitY=0.5;exitDx=0;exitDy=0;entryX=0;entryY=0.25;entryDx=0;entryDy=0;" edge="1" parent="1" source="sxIpjegynjYcKhdSV3K7-1" target="sxIpjegynjYcKhdSV3K7-66">
          <mxGeometry width="50" height="50" relative="1" as="geometry">
            <mxPoint x="260" y="260" as="sourcePoint" />
            <mxPoint x="260" y="220" as="targetPoint" />
            <Array as="points">
              <mxPoint x="250" y="220" />
              <mxPoint x="250" y="250" />
            </Array>
          </mxGeometry>
        </mxCell>
        <mxCell id="sxIpjegynjYcKhdSV3K7-12" value="" style="endArrow=classic;html=1;rounded=0;entryX=0;entryY=0.25;entryDx=0;entryDy=0;" edge="1" parent="1">
          <mxGeometry width="50" height="50" relative="1" as="geometry">
            <mxPoint x="70" y="290" as="sourcePoint" />
            <mxPoint x="160" y="290" as="targetPoint" />
          </mxGeometry>
        </mxCell>
        <mxCell id="sxIpjegynjYcKhdSV3K7-13" value="" style="endArrow=classic;html=1;rounded=0;entryX=0;entryY=0.25;entryDx=0;entryDy=0;" edge="1" parent="1">
          <mxGeometry width="50" height="50" relative="1" as="geometry">
            <mxPoint x="70" y="310" as="sourcePoint" />
            <mxPoint x="160" y="310" as="targetPoint" />
          </mxGeometry>
        </mxCell>
        <mxCell id="sxIpjegynjYcKhdSV3K7-14" value="bit2" style="text;html=1;align=center;verticalAlign=middle;whiteSpace=wrap;rounded=0;" vertex="1" parent="1">
          <mxGeometry x="40" y="260" width="60" height="30" as="geometry" />
        </mxCell>
        <mxCell id="sxIpjegynjYcKhdSV3K7-15" value="bit3" style="text;html=1;align=center;verticalAlign=middle;whiteSpace=wrap;rounded=0;" vertex="1" parent="1">
          <mxGeometry x="40" y="290" width="60" height="30" as="geometry" />
        </mxCell>
        <mxCell id="sxIpjegynjYcKhdSV3K7-16" value="xor" style="rounded=0;whiteSpace=wrap;html=1;" vertex="1" parent="1">
          <mxGeometry x="160" y="360" width="40" height="40" as="geometry" />
        </mxCell>
        <mxCell id="sxIpjegynjYcKhdSV3K7-17" value="" style="endArrow=classic;html=1;rounded=0;entryX=0;entryY=0.25;entryDx=0;entryDy=0;" edge="1" parent="1">
          <mxGeometry width="50" height="50" relative="1" as="geometry">
            <mxPoint x="70" y="370" as="sourcePoint" />
            <mxPoint x="160" y="370" as="targetPoint" />
          </mxGeometry>
        </mxCell>
        <mxCell id="sxIpjegynjYcKhdSV3K7-18" value="" style="endArrow=classic;html=1;rounded=0;entryX=0;entryY=0.25;entryDx=0;entryDy=0;" edge="1" parent="1">
          <mxGeometry width="50" height="50" relative="1" as="geometry">
            <mxPoint x="70" y="390" as="sourcePoint" />
            <mxPoint x="160" y="390" as="targetPoint" />
          </mxGeometry>
        </mxCell>
        <mxCell id="sxIpjegynjYcKhdSV3K7-19" value="bit3" style="text;html=1;align=center;verticalAlign=middle;whiteSpace=wrap;rounded=0;" vertex="1" parent="1">
          <mxGeometry x="40" y="340" width="60" height="30" as="geometry" />
        </mxCell>
        <mxCell id="sxIpjegynjYcKhdSV3K7-20" value="bit4" style="text;html=1;align=center;verticalAlign=middle;whiteSpace=wrap;rounded=0;" vertex="1" parent="1">
          <mxGeometry x="40" y="370" width="60" height="30" as="geometry" />
        </mxCell>
        <mxCell id="sxIpjegynjYcKhdSV3K7-21" value="xor" style="rounded=0;whiteSpace=wrap;html=1;" vertex="1" parent="1">
          <mxGeometry x="160" y="440" width="40" height="40" as="geometry" />
        </mxCell>
        <mxCell id="sxIpjegynjYcKhdSV3K7-22" value="" style="endArrow=classic;html=1;rounded=0;entryX=0;entryY=0.25;entryDx=0;entryDy=0;" edge="1" parent="1">
          <mxGeometry width="50" height="50" relative="1" as="geometry">
            <mxPoint x="70" y="450" as="sourcePoint" />
            <mxPoint x="160" y="450" as="targetPoint" />
          </mxGeometry>
        </mxCell>
        <mxCell id="sxIpjegynjYcKhdSV3K7-23" value="" style="endArrow=classic;html=1;rounded=0;entryX=0;entryY=0.25;entryDx=0;entryDy=0;" edge="1" parent="1">
          <mxGeometry width="50" height="50" relative="1" as="geometry">
            <mxPoint x="70" y="470" as="sourcePoint" />
            <mxPoint x="160" y="470" as="targetPoint" />
          </mxGeometry>
        </mxCell>
        <mxCell id="sxIpjegynjYcKhdSV3K7-24" value="bit4" style="text;html=1;align=center;verticalAlign=middle;whiteSpace=wrap;rounded=0;" vertex="1" parent="1">
          <mxGeometry x="40" y="420" width="60" height="30" as="geometry" />
        </mxCell>
        <mxCell id="sxIpjegynjYcKhdSV3K7-25" value="bit5" style="text;html=1;align=center;verticalAlign=middle;whiteSpace=wrap;rounded=0;" vertex="1" parent="1">
          <mxGeometry x="40" y="450" width="60" height="30" as="geometry" />
        </mxCell>
        <mxCell id="sxIpjegynjYcKhdSV3K7-26" value="xor" style="rounded=0;whiteSpace=wrap;html=1;" vertex="1" parent="1">
          <mxGeometry x="160" y="520" width="40" height="40" as="geometry" />
        </mxCell>
        <mxCell id="sxIpjegynjYcKhdSV3K7-27" value="" style="endArrow=classic;html=1;rounded=0;entryX=0;entryY=0.25;entryDx=0;entryDy=0;" edge="1" parent="1">
          <mxGeometry width="50" height="50" relative="1" as="geometry">
            <mxPoint x="70" y="530" as="sourcePoint" />
            <mxPoint x="160" y="530" as="targetPoint" />
          </mxGeometry>
        </mxCell>
        <mxCell id="sxIpjegynjYcKhdSV3K7-28" value="" style="endArrow=classic;html=1;rounded=0;entryX=0;entryY=0.25;entryDx=0;entryDy=0;" edge="1" parent="1">
          <mxGeometry width="50" height="50" relative="1" as="geometry">
            <mxPoint x="70" y="550" as="sourcePoint" />
            <mxPoint x="160" y="550" as="targetPoint" />
          </mxGeometry>
        </mxCell>
        <mxCell id="sxIpjegynjYcKhdSV3K7-29" value="bit5" style="text;html=1;align=center;verticalAlign=middle;whiteSpace=wrap;rounded=0;" vertex="1" parent="1">
          <mxGeometry x="40" y="500" width="60" height="30" as="geometry" />
        </mxCell>
        <mxCell id="sxIpjegynjYcKhdSV3K7-30" value="bit6" style="text;html=1;align=center;verticalAlign=middle;whiteSpace=wrap;rounded=0;" vertex="1" parent="1">
          <mxGeometry x="40" y="530" width="60" height="30" as="geometry" />
        </mxCell>
        <mxCell id="sxIpjegynjYcKhdSV3K7-31" value="xor" style="rounded=0;whiteSpace=wrap;html=1;" vertex="1" parent="1">
          <mxGeometry x="160" y="600" width="40" height="40" as="geometry" />
        </mxCell>
        <mxCell id="sxIpjegynjYcKhdSV3K7-32" value="" style="endArrow=classic;html=1;rounded=0;entryX=0;entryY=0.25;entryDx=0;entryDy=0;" edge="1" parent="1">
          <mxGeometry width="50" height="50" relative="1" as="geometry">
            <mxPoint x="70" y="610" as="sourcePoint" />
            <mxPoint x="160" y="610" as="targetPoint" />
          </mxGeometry>
        </mxCell>
        <mxCell id="sxIpjegynjYcKhdSV3K7-33" value="" style="endArrow=classic;html=1;rounded=0;entryX=0;entryY=0.25;entryDx=0;entryDy=0;" edge="1" parent="1">
          <mxGeometry width="50" height="50" relative="1" as="geometry">
            <mxPoint x="70" y="630" as="sourcePoint" />
            <mxPoint x="160" y="630" as="targetPoint" />
          </mxGeometry>
        </mxCell>
        <mxCell id="sxIpjegynjYcKhdSV3K7-34" value="bit6" style="text;html=1;align=center;verticalAlign=middle;whiteSpace=wrap;rounded=0;" vertex="1" parent="1">
          <mxGeometry x="40" y="580" width="60" height="30" as="geometry" />
        </mxCell>
        <mxCell id="sxIpjegynjYcKhdSV3K7-35" value="bit7" style="text;html=1;align=center;verticalAlign=middle;whiteSpace=wrap;rounded=0;" vertex="1" parent="1">
          <mxGeometry x="40" y="610" width="60" height="30" as="geometry" />
        </mxCell>
        <mxCell id="sxIpjegynjYcKhdSV3K7-39" value="xor" style="rounded=0;whiteSpace=wrap;html=1;" vertex="1" parent="1">
          <mxGeometry x="160" y="680" width="40" height="40" as="geometry" />
        </mxCell>
        <mxCell id="sxIpjegynjYcKhdSV3K7-40" value="" style="endArrow=classic;html=1;rounded=0;entryX=0;entryY=0.25;entryDx=0;entryDy=0;" edge="1" parent="1">
          <mxGeometry width="50" height="50" relative="1" as="geometry">
            <mxPoint x="70" y="690" as="sourcePoint" />
            <mxPoint x="160" y="690" as="targetPoint" />
          </mxGeometry>
        </mxCell>
        <mxCell id="sxIpjegynjYcKhdSV3K7-41" value="" style="endArrow=classic;html=1;rounded=0;entryX=0;entryY=0.25;entryDx=0;entryDy=0;" edge="1" parent="1">
          <mxGeometry width="50" height="50" relative="1" as="geometry">
            <mxPoint x="70" y="710" as="sourcePoint" />
            <mxPoint x="160" y="710" as="targetPoint" />
          </mxGeometry>
        </mxCell>
        <mxCell id="sxIpjegynjYcKhdSV3K7-42" value="bit7" style="text;html=1;align=center;verticalAlign=middle;whiteSpace=wrap;rounded=0;" vertex="1" parent="1">
          <mxGeometry x="40" y="660" width="60" height="30" as="geometry" />
        </mxCell>
        <mxCell id="sxIpjegynjYcKhdSV3K7-43" value="bit8" style="text;html=1;align=center;verticalAlign=middle;whiteSpace=wrap;rounded=0;" vertex="1" parent="1">
          <mxGeometry x="40" y="690" width="60" height="30" as="geometry" />
        </mxCell>
        <mxCell id="sxIpjegynjYcKhdSV3K7-44" value="xor" style="rounded=0;whiteSpace=wrap;html=1;" vertex="1" parent="1">
          <mxGeometry x="160" y="760" width="40" height="40" as="geometry" />
        </mxCell>
        <mxCell id="sxIpjegynjYcKhdSV3K7-45" value="" style="endArrow=classic;html=1;rounded=0;entryX=0;entryY=0.25;entryDx=0;entryDy=0;" edge="1" parent="1">
          <mxGeometry width="50" height="50" relative="1" as="geometry">
            <mxPoint x="70" y="770" as="sourcePoint" />
            <mxPoint x="160" y="770" as="targetPoint" />
          </mxGeometry>
        </mxCell>
        <mxCell id="sxIpjegynjYcKhdSV3K7-46" value="" style="endArrow=classic;html=1;rounded=0;entryX=0;entryY=0.25;entryDx=0;entryDy=0;" edge="1" parent="1">
          <mxGeometry width="50" height="50" relative="1" as="geometry">
            <mxPoint x="70" y="790" as="sourcePoint" />
            <mxPoint x="160" y="790" as="targetPoint" />
          </mxGeometry>
        </mxCell>
        <mxCell id="sxIpjegynjYcKhdSV3K7-47" value="bit8" style="text;html=1;align=center;verticalAlign=middle;whiteSpace=wrap;rounded=0;" vertex="1" parent="1">
          <mxGeometry x="40" y="740" width="60" height="30" as="geometry" />
        </mxCell>
        <mxCell id="sxIpjegynjYcKhdSV3K7-48" value="bit1" style="text;html=1;align=center;verticalAlign=middle;whiteSpace=wrap;rounded=0;" vertex="1" parent="1">
          <mxGeometry x="40" y="770" width="60" height="30" as="geometry" />
        </mxCell>
        <mxCell id="sxIpjegynjYcKhdSV3K7-49" value="" style="endArrow=classic;html=1;rounded=0;exitX=1;exitY=0.5;exitDx=0;exitDy=0;entryX=-0.05;entryY=0.74;entryDx=0;entryDy=0;entryPerimeter=0;" edge="1" parent="1" target="sxIpjegynjYcKhdSV3K7-66">
          <mxGeometry width="50" height="50" relative="1" as="geometry">
            <mxPoint x="200" y="300" as="sourcePoint" />
            <mxPoint x="260" y="300" as="targetPoint" />
            <Array as="points">
              <mxPoint x="250" y="300" />
              <mxPoint x="250" y="270" />
            </Array>
          </mxGeometry>
        </mxCell>
        <mxCell id="sxIpjegynjYcKhdSV3K7-51" value="" style="endArrow=classic;html=1;rounded=0;exitX=1;exitY=0.5;exitDx=0;exitDy=0;entryX=-0.058;entryY=0.256;entryDx=0;entryDy=0;entryPerimeter=0;" edge="1" parent="1" target="sxIpjegynjYcKhdSV3K7-67">
          <mxGeometry width="50" height="50" relative="1" as="geometry">
            <mxPoint x="200" y="380" as="sourcePoint" />
            <mxPoint x="260" y="380" as="targetPoint" />
            <Array as="points">
              <mxPoint x="260" y="380" />
              <mxPoint x="260" y="410" />
            </Array>
          </mxGeometry>
        </mxCell>
        <mxCell id="sxIpjegynjYcKhdSV3K7-53" value="" style="endArrow=classic;html=1;rounded=0;exitX=1;exitY=0.5;exitDx=0;exitDy=0;entryX=0;entryY=0.75;entryDx=0;entryDy=0;" edge="1" parent="1" target="sxIpjegynjYcKhdSV3K7-67">
          <mxGeometry width="50" height="50" relative="1" as="geometry">
            <mxPoint x="200" y="460" as="sourcePoint" />
            <mxPoint x="260" y="460" as="targetPoint" />
            <Array as="points">
              <mxPoint x="260" y="460" />
              <mxPoint x="260" y="430" />
            </Array>
          </mxGeometry>
        </mxCell>
        <mxCell id="sxIpjegynjYcKhdSV3K7-55" value="" style="endArrow=classic;html=1;rounded=0;exitX=1;exitY=0.5;exitDx=0;exitDy=0;entryX=0;entryY=0.25;entryDx=0;entryDy=0;" edge="1" parent="1" target="sxIpjegynjYcKhdSV3K7-68">
          <mxGeometry width="50" height="50" relative="1" as="geometry">
            <mxPoint x="200" y="540" as="sourcePoint" />
            <mxPoint x="260" y="540" as="targetPoint" />
            <Array as="points">
              <mxPoint x="260" y="540" />
              <mxPoint x="260" y="570" />
            </Array>
          </mxGeometry>
        </mxCell>
        <mxCell id="sxIpjegynjYcKhdSV3K7-57" value="" style="endArrow=classic;html=1;rounded=0;exitX=1;exitY=0.5;exitDx=0;exitDy=0;entryX=-0.025;entryY=0.742;entryDx=0;entryDy=0;entryPerimeter=0;" edge="1" parent="1" target="sxIpjegynjYcKhdSV3K7-68">
          <mxGeometry width="50" height="50" relative="1" as="geometry">
            <mxPoint x="200" y="620" as="sourcePoint" />
            <mxPoint x="260" y="620" as="targetPoint" />
            <Array as="points">
              <mxPoint x="260" y="620" />
              <mxPoint x="260" y="590" />
            </Array>
          </mxGeometry>
        </mxCell>
        <mxCell id="sxIpjegynjYcKhdSV3K7-59" value="" style="endArrow=classic;html=1;rounded=0;exitX=1;exitY=0.5;exitDx=0;exitDy=0;entryX=0;entryY=0.25;entryDx=0;entryDy=0;" edge="1" parent="1" target="sxIpjegynjYcKhdSV3K7-69">
          <mxGeometry width="50" height="50" relative="1" as="geometry">
            <mxPoint x="200" y="700" as="sourcePoint" />
            <mxPoint x="260" y="700" as="targetPoint" />
            <Array as="points">
              <mxPoint x="260" y="700" />
              <mxPoint x="260" y="730" />
            </Array>
          </mxGeometry>
        </mxCell>
        <mxCell id="sxIpjegynjYcKhdSV3K7-61" value="" style="endArrow=classic;html=1;rounded=0;exitX=1;exitY=0.5;exitDx=0;exitDy=0;entryX=0;entryY=0.75;entryDx=0;entryDy=0;" edge="1" parent="1" target="sxIpjegynjYcKhdSV3K7-69">
          <mxGeometry width="50" height="50" relative="1" as="geometry">
            <mxPoint x="200" y="779.58" as="sourcePoint" />
            <mxPoint x="260" y="779.58" as="targetPoint" />
            <Array as="points">
              <mxPoint x="260" y="780" />
              <mxPoint x="260" y="750" />
            </Array>
          </mxGeometry>
        </mxCell>
        <mxCell id="sxIpjegynjYcKhdSV3K7-66" value="+" style="rounded=0;whiteSpace=wrap;html=1;" vertex="1" parent="1">
          <mxGeometry x="280" y="240" width="40" height="40" as="geometry" />
        </mxCell>
        <mxCell id="sxIpjegynjYcKhdSV3K7-67" value="+" style="rounded=0;whiteSpace=wrap;html=1;" vertex="1" parent="1">
          <mxGeometry x="280" y="400" width="40" height="40" as="geometry" />
        </mxCell>
        <mxCell id="sxIpjegynjYcKhdSV3K7-68" value="+" style="rounded=0;whiteSpace=wrap;html=1;" vertex="1" parent="1">
          <mxGeometry x="280" y="560" width="40" height="40" as="geometry" />
        </mxCell>
        <mxCell id="sxIpjegynjYcKhdSV3K7-69" value="+" style="rounded=0;whiteSpace=wrap;html=1;" vertex="1" parent="1">
          <mxGeometry x="280" y="720" width="40" height="40" as="geometry" />
        </mxCell>
        <mxCell id="sxIpjegynjYcKhdSV3K7-70" value="" style="triangle;whiteSpace=wrap;html=1;direction=north;" vertex="1" parent="1">
          <mxGeometry x="295" y="270" width="10" height="10" as="geometry" />
        </mxCell>
        <mxCell id="sxIpjegynjYcKhdSV3K7-71" value="" style="triangle;whiteSpace=wrap;html=1;direction=north;" vertex="1" parent="1">
          <mxGeometry x="295" y="430" width="10" height="10" as="geometry" />
        </mxCell>
        <mxCell id="sxIpjegynjYcKhdSV3K7-72" value="" style="triangle;whiteSpace=wrap;html=1;direction=north;" vertex="1" parent="1">
          <mxGeometry x="295" y="590" width="10" height="10" as="geometry" />
        </mxCell>
        <mxCell id="sxIpjegynjYcKhdSV3K7-73" value="" style="triangle;whiteSpace=wrap;html=1;direction=north;" vertex="1" parent="1">
          <mxGeometry x="295" y="750" width="10" height="10" as="geometry" />
        </mxCell>
        <mxCell id="sxIpjegynjYcKhdSV3K7-74" value="+" style="rounded=0;whiteSpace=wrap;html=1;" vertex="1" parent="1">
          <mxGeometry x="360" y="320" width="40" height="40" as="geometry" />
        </mxCell>
        <mxCell id="sxIpjegynjYcKhdSV3K7-75" value="" style="triangle;whiteSpace=wrap;html=1;direction=north;" vertex="1" parent="1">
          <mxGeometry x="375" y="350" width="10" height="10" as="geometry" />
        </mxCell>
        <mxCell id="sxIpjegynjYcKhdSV3K7-76" value="" style="endArrow=classic;html=1;rounded=0;exitX=1;exitY=0.5;exitDx=0;exitDy=0;entryX=0;entryY=0.25;entryDx=0;entryDy=0;" edge="1" parent="1" source="sxIpjegynjYcKhdSV3K7-66" target="sxIpjegynjYcKhdSV3K7-74">
          <mxGeometry width="50" height="50" relative="1" as="geometry">
            <mxPoint x="385" y="300" as="sourcePoint" />
            <mxPoint x="435" y="250" as="targetPoint" />
            <Array as="points">
              <mxPoint x="340" y="260" />
              <mxPoint x="340" y="330" />
            </Array>
          </mxGeometry>
        </mxCell>
        <mxCell id="sxIpjegynjYcKhdSV3K7-77" value="" style="endArrow=classic;html=1;rounded=0;exitX=1;exitY=0.5;exitDx=0;exitDy=0;entryX=0;entryY=0.75;entryDx=0;entryDy=0;" edge="1" parent="1" source="sxIpjegynjYcKhdSV3K7-67" target="sxIpjegynjYcKhdSV3K7-74">
          <mxGeometry width="50" height="50" relative="1" as="geometry">
            <mxPoint x="355" y="420" as="sourcePoint" />
            <mxPoint x="405" y="370" as="targetPoint" />
            <Array as="points">
              <mxPoint x="340" y="420" />
              <mxPoint x="340" y="350" />
            </Array>
          </mxGeometry>
        </mxCell>
        <mxCell id="sxIpjegynjYcKhdSV3K7-78" value="+" style="rounded=0;whiteSpace=wrap;html=1;" vertex="1" parent="1">
          <mxGeometry x="360" y="640" width="40" height="40" as="geometry" />
        </mxCell>
        <mxCell id="sxIpjegynjYcKhdSV3K7-79" value="" style="triangle;whiteSpace=wrap;html=1;direction=north;" vertex="1" parent="1">
          <mxGeometry x="375" y="670" width="10" height="10" as="geometry" />
        </mxCell>
        <mxCell id="sxIpjegynjYcKhdSV3K7-80" value="" style="endArrow=classic;html=1;rounded=0;exitX=1;exitY=0.5;exitDx=0;exitDy=0;entryX=0;entryY=0.25;entryDx=0;entryDy=0;" edge="1" parent="1" source="sxIpjegynjYcKhdSV3K7-68" target="sxIpjegynjYcKhdSV3K7-78">
          <mxGeometry width="50" height="50" relative="1" as="geometry">
            <mxPoint x="375" y="620" as="sourcePoint" />
            <mxPoint x="425" y="570" as="targetPoint" />
            <Array as="points">
              <mxPoint x="340" y="580" />
              <mxPoint x="340" y="650" />
            </Array>
          </mxGeometry>
        </mxCell>
        <mxCell id="sxIpjegynjYcKhdSV3K7-81" value="" style="endArrow=classic;html=1;rounded=0;exitX=1;exitY=0.5;exitDx=0;exitDy=0;entryX=0;entryY=0.75;entryDx=0;entryDy=0;" edge="1" parent="1" source="sxIpjegynjYcKhdSV3K7-69" target="sxIpjegynjYcKhdSV3K7-78">
          <mxGeometry width="50" height="50" relative="1" as="geometry">
            <mxPoint x="420" y="770" as="sourcePoint" />
            <mxPoint x="470" y="720" as="targetPoint" />
            <Array as="points">
              <mxPoint x="340" y="740" />
              <mxPoint x="340" y="670" />
            </Array>
          </mxGeometry>
        </mxCell>
        <mxCell id="sxIpjegynjYcKhdSV3K7-82" value="+" style="rounded=0;whiteSpace=wrap;html=1;" vertex="1" parent="1">
          <mxGeometry x="480" y="480" width="40" height="40" as="geometry" />
        </mxCell>
        <mxCell id="sxIpjegynjYcKhdSV3K7-83" value="" style="triangle;whiteSpace=wrap;html=1;direction=north;" vertex="1" parent="1">
          <mxGeometry x="495" y="510" width="10" height="10" as="geometry" />
        </mxCell>
        <mxCell id="sxIpjegynjYcKhdSV3K7-84" value="" style="endArrow=classic;html=1;rounded=0;exitX=1;exitY=0.5;exitDx=0;exitDy=0;entryX=0;entryY=0.25;entryDx=0;entryDy=0;" edge="1" parent="1" source="sxIpjegynjYcKhdSV3K7-74" target="sxIpjegynjYcKhdSV3K7-82">
          <mxGeometry width="50" height="50" relative="1" as="geometry">
            <mxPoint x="480" y="450" as="sourcePoint" />
            <mxPoint x="530" y="400" as="targetPoint" />
            <Array as="points">
              <mxPoint x="460" y="340" />
              <mxPoint x="460" y="490" />
            </Array>
          </mxGeometry>
        </mxCell>
        <mxCell id="sxIpjegynjYcKhdSV3K7-85" value="" style="endArrow=classic;html=1;rounded=0;exitX=1;exitY=0.5;exitDx=0;exitDy=0;entryX=0;entryY=0.75;entryDx=0;entryDy=0;" edge="1" parent="1" source="sxIpjegynjYcKhdSV3K7-78" target="sxIpjegynjYcKhdSV3K7-82">
          <mxGeometry width="50" height="50" relative="1" as="geometry">
            <mxPoint x="455" y="660" as="sourcePoint" />
            <mxPoint x="505" y="610" as="targetPoint" />
            <Array as="points">
              <mxPoint x="460" y="660" />
              <mxPoint x="460" y="510" />
            </Array>
          </mxGeometry>
        </mxCell>
        <mxCell id="sxIpjegynjYcKhdSV3K7-86" value="&amp;gt;" style="rounded=0;whiteSpace=wrap;html=1;" vertex="1" parent="1">
          <mxGeometry x="550" y="565" width="120" height="60" as="geometry" />
        </mxCell>
        <mxCell id="sxIpjegynjYcKhdSV3K7-87" value="" style="endArrow=classic;html=1;rounded=0;exitX=1;exitY=0.5;exitDx=0;exitDy=0;entryX=0.25;entryY=0;entryDx=0;entryDy=0;" edge="1" parent="1" source="sxIpjegynjYcKhdSV3K7-82" target="sxIpjegynjYcKhdSV3K7-86">
          <mxGeometry width="50" height="50" relative="1" as="geometry">
            <mxPoint x="585" y="520" as="sourcePoint" />
            <mxPoint x="635" y="470" as="targetPoint" />
            <Array as="points">
              <mxPoint x="580" y="500" />
            </Array>
          </mxGeometry>
        </mxCell>
        <mxCell id="sxIpjegynjYcKhdSV3K7-89" value="" style="endArrow=classic;html=1;rounded=0;entryX=0.75;entryY=0;entryDx=0;entryDy=0;" edge="1" parent="1" target="sxIpjegynjYcKhdSV3K7-86">
          <mxGeometry width="50" height="50" relative="1" as="geometry">
            <mxPoint x="640" y="500" as="sourcePoint" />
            <mxPoint x="700" y="470" as="targetPoint" />
          </mxGeometry>
        </mxCell>
        <mxCell id="sxIpjegynjYcKhdSV3K7-90" value="2" style="text;html=1;align=center;verticalAlign=middle;whiteSpace=wrap;rounded=0;" vertex="1" parent="1">
          <mxGeometry x="620" y="470" width="60" height="30" as="geometry" />
        </mxCell>
        <mxCell id="sxIpjegynjYcKhdSV3K7-91" value="" style="endArrow=classic;html=1;rounded=0;exitX=0.5;exitY=1;exitDx=0;exitDy=0;" edge="1" parent="1" source="sxIpjegynjYcKhdSV3K7-86">
          <mxGeometry width="50" height="50" relative="1" as="geometry">
            <mxPoint x="660" y="750" as="sourcePoint" />
            <mxPoint x="610" y="700" as="targetPoint" />
          </mxGeometry>
        </mxCell>
        <mxCell id="sxIpjegynjYcKhdSV3K7-92" value="" style="shape=trapezoid;perimeter=trapezoidPerimeter;whiteSpace=wrap;html=1;fixedSize=1;direction=south;" vertex="1" parent="1">
          <mxGeometry x="580" y="690" width="60" height="120" as="geometry" />
        </mxCell>
        <mxCell id="sxIpjegynjYcKhdSV3K7-93" value="1" style="text;html=1;align=center;verticalAlign=middle;whiteSpace=wrap;rounded=0;" vertex="1" parent="1">
          <mxGeometry x="580" y="710" width="60" height="30" as="geometry" />
        </mxCell>
        <mxCell id="sxIpjegynjYcKhdSV3K7-94" value="0" style="text;html=1;align=center;verticalAlign=middle;whiteSpace=wrap;rounded=0;" vertex="1" parent="1">
          <mxGeometry x="580" y="750" width="60" height="30" as="geometry" />
        </mxCell>
        <mxCell id="sxIpjegynjYcKhdSV3K7-95" value="" style="endArrow=classic;html=1;rounded=0;entryX=-0.003;entryY=0.356;entryDx=0;entryDy=0;entryPerimeter=0;" edge="1" parent="1" target="sxIpjegynjYcKhdSV3K7-93">
          <mxGeometry width="50" height="50" relative="1" as="geometry">
            <mxPoint x="440" y="720" as="sourcePoint" />
            <mxPoint x="475" y="730" as="targetPoint" />
          </mxGeometry>
        </mxCell>
        <mxCell id="sxIpjegynjYcKhdSV3K7-96" value="9" style="text;html=1;align=center;verticalAlign=middle;whiteSpace=wrap;rounded=0;" vertex="1" parent="1">
          <mxGeometry x="380" y="700" width="60" height="30" as="geometry" />
        </mxCell>
        <mxCell id="sxIpjegynjYcKhdSV3K7-97" value="" style="endArrow=classic;html=1;rounded=0;exitX=1;exitY=0;exitDx=0;exitDy=0;" edge="1" parent="1" source="sxIpjegynjYcKhdSV3K7-94">
          <mxGeometry width="50" height="50" relative="1" as="geometry">
            <mxPoint x="710" y="770" as="sourcePoint" />
            <mxPoint x="720" y="750" as="targetPoint" />
          </mxGeometry>
        </mxCell>
        <mxCell id="sxIpjegynjYcKhdSV3K7-98" value="data_o" style="text;html=1;align=center;verticalAlign=middle;whiteSpace=wrap;rounded=0;" vertex="1" parent="1">
          <mxGeometry x="670" y="700" width="60" height="30" as="geometry" />
        </mxCell>
        <mxCell id="sxIpjegynjYcKhdSV3K7-100" value="+" style="rounded=0;whiteSpace=wrap;html=1;" vertex="1" parent="1">
          <mxGeometry x="280" y="840" width="40" height="40" as="geometry" />
        </mxCell>
        <mxCell id="sxIpjegynjYcKhdSV3K7-101" value="" style="endArrow=classic;html=1;rounded=0;entryX=0;entryY=0.25;entryDx=0;entryDy=0;" edge="1" parent="1">
          <mxGeometry width="50" height="50" relative="1" as="geometry">
            <mxPoint x="190" y="850" as="sourcePoint" />
            <mxPoint x="280" y="850" as="targetPoint" />
          </mxGeometry>
        </mxCell>
        <mxCell id="sxIpjegynjYcKhdSV3K7-102" value="" style="endArrow=classic;html=1;rounded=0;entryX=0;entryY=0.25;entryDx=0;entryDy=0;" edge="1" parent="1">
          <mxGeometry width="50" height="50" relative="1" as="geometry">
            <mxPoint x="190" y="870" as="sourcePoint" />
            <mxPoint x="280" y="870" as="targetPoint" />
          </mxGeometry>
        </mxCell>
        <mxCell id="sxIpjegynjYcKhdSV3K7-103" value="bit1" style="text;html=1;align=center;verticalAlign=middle;whiteSpace=wrap;rounded=0;" vertex="1" parent="1">
          <mxGeometry x="160" y="820" width="60" height="30" as="geometry" />
        </mxCell>
        <mxCell id="sxIpjegynjYcKhdSV3K7-104" value="bit2" style="text;html=1;align=center;verticalAlign=middle;whiteSpace=wrap;rounded=0;" vertex="1" parent="1">
          <mxGeometry x="160" y="850" width="60" height="30" as="geometry" />
        </mxCell>
        <mxCell id="sxIpjegynjYcKhdSV3K7-105" value="+" style="rounded=0;whiteSpace=wrap;html=1;" vertex="1" parent="1">
          <mxGeometry x="280" y="920" width="40" height="40" as="geometry" />
        </mxCell>
        <mxCell id="sxIpjegynjYcKhdSV3K7-106" value="" style="endArrow=classic;html=1;rounded=0;entryX=0;entryY=0.25;entryDx=0;entryDy=0;" edge="1" parent="1">
          <mxGeometry width="50" height="50" relative="1" as="geometry">
            <mxPoint x="190" y="930" as="sourcePoint" />
            <mxPoint x="280" y="930" as="targetPoint" />
          </mxGeometry>
        </mxCell>
        <mxCell id="sxIpjegynjYcKhdSV3K7-107" value="" style="endArrow=classic;html=1;rounded=0;entryX=0;entryY=0.25;entryDx=0;entryDy=0;" edge="1" parent="1">
          <mxGeometry width="50" height="50" relative="1" as="geometry">
            <mxPoint x="190" y="950" as="sourcePoint" />
            <mxPoint x="280" y="950" as="targetPoint" />
          </mxGeometry>
        </mxCell>
        <mxCell id="sxIpjegynjYcKhdSV3K7-108" value="bit3" style="text;html=1;align=center;verticalAlign=middle;whiteSpace=wrap;rounded=0;" vertex="1" parent="1">
          <mxGeometry x="160" y="900" width="60" height="30" as="geometry" />
        </mxCell>
        <mxCell id="sxIpjegynjYcKhdSV3K7-109" value="bit4" style="text;html=1;align=center;verticalAlign=middle;whiteSpace=wrap;rounded=0;" vertex="1" parent="1">
          <mxGeometry x="160" y="930" width="60" height="30" as="geometry" />
        </mxCell>
        <mxCell id="sxIpjegynjYcKhdSV3K7-110" value="+" style="rounded=0;whiteSpace=wrap;html=1;" vertex="1" parent="1">
          <mxGeometry x="280" y="1000" width="40" height="40" as="geometry" />
        </mxCell>
        <mxCell id="sxIpjegynjYcKhdSV3K7-111" value="" style="endArrow=classic;html=1;rounded=0;entryX=0;entryY=0.25;entryDx=0;entryDy=0;" edge="1" parent="1">
          <mxGeometry width="50" height="50" relative="1" as="geometry">
            <mxPoint x="190" y="1010" as="sourcePoint" />
            <mxPoint x="280" y="1010" as="targetPoint" />
          </mxGeometry>
        </mxCell>
        <mxCell id="sxIpjegynjYcKhdSV3K7-112" value="" style="endArrow=classic;html=1;rounded=0;entryX=0;entryY=0.25;entryDx=0;entryDy=0;" edge="1" parent="1">
          <mxGeometry width="50" height="50" relative="1" as="geometry">
            <mxPoint x="190" y="1030" as="sourcePoint" />
            <mxPoint x="280" y="1030" as="targetPoint" />
          </mxGeometry>
        </mxCell>
        <mxCell id="sxIpjegynjYcKhdSV3K7-113" value="bit5" style="text;html=1;align=center;verticalAlign=middle;whiteSpace=wrap;rounded=0;" vertex="1" parent="1">
          <mxGeometry x="160" y="980" width="60" height="30" as="geometry" />
        </mxCell>
        <mxCell id="sxIpjegynjYcKhdSV3K7-114" value="bit6" style="text;html=1;align=center;verticalAlign=middle;whiteSpace=wrap;rounded=0;" vertex="1" parent="1">
          <mxGeometry x="160" y="1010" width="60" height="30" as="geometry" />
        </mxCell>
        <mxCell id="sxIpjegynjYcKhdSV3K7-115" value="+" style="rounded=0;whiteSpace=wrap;html=1;" vertex="1" parent="1">
          <mxGeometry x="280" y="1080" width="40" height="40" as="geometry" />
        </mxCell>
        <mxCell id="sxIpjegynjYcKhdSV3K7-116" value="" style="endArrow=classic;html=1;rounded=0;entryX=0;entryY=0.25;entryDx=0;entryDy=0;" edge="1" parent="1">
          <mxGeometry width="50" height="50" relative="1" as="geometry">
            <mxPoint x="190" y="1090" as="sourcePoint" />
            <mxPoint x="280" y="1090" as="targetPoint" />
          </mxGeometry>
        </mxCell>
        <mxCell id="sxIpjegynjYcKhdSV3K7-117" value="" style="endArrow=classic;html=1;rounded=0;entryX=0;entryY=0.25;entryDx=0;entryDy=0;" edge="1" parent="1">
          <mxGeometry width="50" height="50" relative="1" as="geometry">
            <mxPoint x="190" y="1110" as="sourcePoint" />
            <mxPoint x="280" y="1110" as="targetPoint" />
          </mxGeometry>
        </mxCell>
        <mxCell id="sxIpjegynjYcKhdSV3K7-118" value="bit7" style="text;html=1;align=center;verticalAlign=middle;whiteSpace=wrap;rounded=0;" vertex="1" parent="1">
          <mxGeometry x="161" y="1060" width="60" height="30" as="geometry" />
        </mxCell>
        <mxCell id="sxIpjegynjYcKhdSV3K7-119" value="bit8" style="text;html=1;align=center;verticalAlign=middle;whiteSpace=wrap;rounded=0;" vertex="1" parent="1">
          <mxGeometry x="160" y="1090" width="60" height="30" as="geometry" />
        </mxCell>
        <mxCell id="sxIpjegynjYcKhdSV3K7-124" value="" style="triangle;whiteSpace=wrap;html=1;direction=north;" vertex="1" parent="1">
          <mxGeometry x="295" y="870" width="10" height="10" as="geometry" />
        </mxCell>
        <mxCell id="sxIpjegynjYcKhdSV3K7-125" value="" style="triangle;whiteSpace=wrap;html=1;direction=north;" vertex="1" parent="1">
          <mxGeometry x="295" y="950" width="10" height="10" as="geometry" />
        </mxCell>
        <mxCell id="sxIpjegynjYcKhdSV3K7-126" value="" style="triangle;whiteSpace=wrap;html=1;direction=north;" vertex="1" parent="1">
          <mxGeometry x="295" y="1030" width="10" height="10" as="geometry" />
        </mxCell>
        <mxCell id="sxIpjegynjYcKhdSV3K7-127" value="" style="triangle;whiteSpace=wrap;html=1;direction=north;" vertex="1" parent="1">
          <mxGeometry x="295" y="1110" width="10" height="10" as="geometry" />
        </mxCell>
        <mxCell id="sxIpjegynjYcKhdSV3K7-128" value="+" style="rounded=0;whiteSpace=wrap;html=1;" vertex="1" parent="1">
          <mxGeometry x="360" y="880" width="40" height="40" as="geometry" />
        </mxCell>
        <mxCell id="sxIpjegynjYcKhdSV3K7-129" value="" style="triangle;whiteSpace=wrap;html=1;direction=north;" vertex="1" parent="1">
          <mxGeometry x="375" y="910" width="10" height="10" as="geometry" />
        </mxCell>
        <mxCell id="sxIpjegynjYcKhdSV3K7-130" value="+" style="rounded=0;whiteSpace=wrap;html=1;" vertex="1" parent="1">
          <mxGeometry x="360" y="1000" width="40" height="40" as="geometry" />
        </mxCell>
        <mxCell id="sxIpjegynjYcKhdSV3K7-131" value="" style="triangle;whiteSpace=wrap;html=1;direction=north;" vertex="1" parent="1">
          <mxGeometry x="375" y="1030" width="10" height="10" as="geometry" />
        </mxCell>
        <mxCell id="sxIpjegynjYcKhdSV3K7-132" value="+" style="rounded=0;whiteSpace=wrap;html=1;" vertex="1" parent="1">
          <mxGeometry x="440" y="960" width="40" height="40" as="geometry" />
        </mxCell>
        <mxCell id="sxIpjegynjYcKhdSV3K7-133" value="" style="triangle;whiteSpace=wrap;html=1;direction=north;" vertex="1" parent="1">
          <mxGeometry x="455" y="990" width="10" height="10" as="geometry" />
        </mxCell>
        <mxCell id="sxIpjegynjYcKhdSV3K7-134" value="" style="endArrow=classic;html=1;rounded=0;exitX=1;exitY=0.5;exitDx=0;exitDy=0;entryX=0.007;entryY=0.351;entryDx=0;entryDy=0;entryPerimeter=0;" edge="1" parent="1" source="sxIpjegynjYcKhdSV3K7-132" target="sxIpjegynjYcKhdSV3K7-94">
          <mxGeometry width="50" height="50" relative="1" as="geometry">
            <mxPoint x="585" y="990" as="sourcePoint" />
            <mxPoint x="635" y="940" as="targetPoint" />
            <Array as="points">
              <mxPoint x="520" y="980" />
              <mxPoint x="520" y="760" />
            </Array>
          </mxGeometry>
        </mxCell>
      </root>
    </mxGraphModel>
  </diagram>
</mxfile>
